<?xml version="1.0" standalone="no"?>
<!DOCTYPE svg PUBLIC "-//W3C//DTD SVG 20010904//EN"
 "http://www.w3.org/TR/2001/REC-SVG-20010904/DTD/svg10.dtd">
<svg version="1.0" xmlns="http://www.w3.org/2000/svg"
 width="612.000000pt" height="612.000000pt" viewBox="0 0 612.000000 612.000000"
 preserveAspectRatio="xMidYMid meet">
<metadata>
Created by potrace 1.14, written by Peter Selinger 2001-2017
</metadata>
<g transform="translate(0.000000,612.000000) scale(0.100000,-0.100000)"
fill="#000000" stroke="none">
<path d="M0 3060 l0 -3060 3060 0 3060 0 0 3060 0 3060 -3060 0 -3060 0 0
-3060z m3070 1651 c191 -42 308 -83 423 -148 33 -18 61 -33 63 -33 7 0 84 -57
144 -108 77 -65 139 -136 195 -223 38 -58 56 -94 91 -184 16 -41 16 32 0 80
-9 25 -16 53 -16 63 1 45 127 146 264 212 56 28 109 50 117 50 9 0 29 6 45 14
75 38 464 37 536 0 15 -8 36 -14 46 -14 44 0 244 -105 255 -134 3 -8 3 -23 1
-33 -5 -16 -25 -24 -112 -41 -206 -42 -238 -50 -312 -83 -188 -83 -330 -197
-472 -378 -133 -170 -146 -187 -171 -226 -15 -22 -52 -74 -82 -115 -30 -41
-63 -88 -73 -103 -22 -35 -92 -130 -101 -137 -4 -3 -20 -23 -37 -45 -33 -45
-47 -62 -198 -228 -131 -145 -180 -194 -321 -321 -174 -157 -187 -168 -269
-226 -42 -30 -107 -77 -145 -105 -89 -65 -165 -113 -327 -205 -43 -25 -87 -49
-96 -55 -27 -17 -419 -211 -478 -238 -30 -13 -116 -50 -190 -81 -74 -31 -166
-70 -205 -87 -38 -16 -74 -29 -79 -29 -5 0 -65 -22 -135 -49 -215 -84 -289
-111 -308 -111 -29 0 -45 16 -41 40 2 18 40 44 168 117 272 157 280 161 410
241 124 76 407 263 459 303 14 11 69 51 121 89 117 85 137 100 159 123 10 9
34 29 53 45 179 138 399 345 471 442 23 30 53 69 68 85 86 96 167 222 240 375
92 194 93 196 93 400 l0 175 -44 85 c-34 66 -64 105 -135 176 -87 87 -202 166
-264 181 -14 3 -30 9 -36 13 -19 15 -171 58 -240 70 -38 6 -95 15 -125 21 -64
12 -372 6 -470 -10 -36 -5 -94 -14 -130 -20 -36 -5 -110 -23 -165 -40 -133
-41 -185 -39 -185 6 0 12 117 96 185 134 224 124 453 217 573 235 26 3 56 11
66 16 43 23 191 36 406 36 184 1 240 -2 310 -17z"/>
<path d="M2420 4655 c-30 -7 -75 -18 -100 -25 -25 -6 -54 -13 -65 -15 -65 -11
-286 -100 -415 -167 -86 -45 -198 -115 -169 -105 69 23 167 46 239 56 47 6
114 16 150 22 77 13 418 6 500 -10 30 -5 82 -15 115 -20 87 -14 251 -80 357
-144 86 -51 213 -165 242 -217 6 -10 31 -56 56 -102 l44 -83 1 -195 c0 -204
-2 -219 -51 -328 -13 -29 -24 -56 -24 -60 0 -4 -12 -31 -27 -59 -16 -28 -41
-74 -56 -103 -16 -29 -37 -62 -48 -73 -10 -11 -22 -29 -25 -40 -6 -19 -41 -65
-138 -181 -166 -198 -436 -446 -723 -662 -94 -70 -359 -254 -368 -254 -3 0
-23 -14 -44 -31 -21 -16 -71 -49 -110 -72 -39 -23 -151 -90 -249 -148 -97 -59
-188 -112 -200 -119 -13 -6 -22 -13 -20 -16 2 -2 58 19 123 46 66 28 127 50
135 50 8 0 31 8 50 19 19 10 67 30 105 44 157 57 647 287 800 376 17 10 55 31
85 48 30 16 73 41 95 54 59 34 336 222 365 247 14 12 72 59 130 105 58 46 156
133 219 193 62 60 116 111 120 114 15 12 200 219 236 265 22 28 42 52 45 55
12 11 88 108 113 145 58 85 77 111 91 125 7 8 33 44 57 80 23 36 45 67 48 70
8 6 47 60 96 130 21 30 43 60 49 67 6 6 25 28 41 49 68 84 155 171 235 236
112 91 331 198 435 214 84 12 194 38 190 44 -11 18 -161 83 -232 101 -86 21
-246 38 -308 32 -93 -8 -206 -27 -211 -35 -3 -4 -17 -8 -32 -8 -71 0 -325
-163 -339 -218 -3 -13 2 -40 11 -61 14 -30 16 -60 13 -166 -5 -162 -14 -200
-47 -200 -23 0 -25 5 -36 85 -11 86 -15 100 -57 225 -83 240 -347 471 -652
568 -44 14 -105 34 -135 43 -47 16 -99 19 -355 21 -226 1 -314 -1 -355 -12z"/>
<path d="M4001 3954 c0 -11 3 -14 6 -6 3 7 2 16 -1 19 -3 4 -6 -2 -5 -13z"/>
</g>
</svg>
